<mxfile host="app.diagrams.net" agent="Mozilla/5.0 (Macintosh; Intel Mac OS X 10_15_7) AppleWebKit/537.36 (KHTML, like Gecko) Chrome/130.0.0.0 Safari/537.36" version="24.8.0">
  <diagram name="Page-1" id="VLLeWtq3hdZK2g9CNoTD">
    <mxGraphModel dx="1781" dy="1774" grid="1" gridSize="10" guides="1" tooltips="1" connect="1" arrows="1" fold="1" page="1" pageScale="1" pageWidth="827" pageHeight="1169" math="0" shadow="0">
      <root>
        <mxCell id="0" />
        <mxCell id="1" parent="0" />
        <mxCell id="RhkHFqrjHTu2ExL1VQ-C-40" value="" style="rounded=0;whiteSpace=wrap;html=1;" vertex="1" parent="1">
          <mxGeometry x="280" y="1815" width="270" height="175" as="geometry" />
        </mxCell>
        <mxCell id="RhkHFqrjHTu2ExL1VQ-C-21" value="" style="rounded=0;whiteSpace=wrap;html=1;" vertex="1" parent="1">
          <mxGeometry x="-30" y="580" width="770" height="360" as="geometry" />
        </mxCell>
        <mxCell id="IxyZKsqGRVOInoOaAUH6-1" value="" style="rounded=0;whiteSpace=wrap;html=1;" parent="1" vertex="1">
          <mxGeometry x="144" y="40" width="556" height="510" as="geometry" />
        </mxCell>
        <mxCell id="IxyZKsqGRVOInoOaAUH6-3" value="" style="rounded=0;whiteSpace=wrap;html=1;" parent="1" vertex="1">
          <mxGeometry x="144" y="40" width="556" height="90" as="geometry" />
        </mxCell>
        <mxCell id="IxyZKsqGRVOInoOaAUH6-2" value="" style="rounded=0;whiteSpace=wrap;html=1;" parent="1" vertex="1">
          <mxGeometry x="144" y="40" width="136" height="510" as="geometry" />
        </mxCell>
        <mxCell id="IxyZKsqGRVOInoOaAUH6-4" value="" style="rounded=0;whiteSpace=wrap;html=1;" parent="1" vertex="1">
          <mxGeometry x="310" y="250" width="120" height="60" as="geometry" />
        </mxCell>
        <mxCell id="IxyZKsqGRVOInoOaAUH6-5" value="" style="endArrow=none;dashed=1;html=1;dashPattern=1 3;strokeWidth=2;rounded=0;entryX=0;entryY=0.25;entryDx=0;entryDy=0;" parent="1" target="IxyZKsqGRVOInoOaAUH6-4" edge="1">
          <mxGeometry width="50" height="50" relative="1" as="geometry">
            <mxPoint x="140" y="265" as="sourcePoint" />
            <mxPoint x="440" y="290" as="targetPoint" />
          </mxGeometry>
        </mxCell>
        <mxCell id="IxyZKsqGRVOInoOaAUH6-6" value="left" style="text;html=1;align=center;verticalAlign=middle;whiteSpace=wrap;rounded=0;" parent="1" vertex="1">
          <mxGeometry x="210" y="230" width="60" height="30" as="geometry" />
        </mxCell>
        <mxCell id="IxyZKsqGRVOInoOaAUH6-7" value="" style="endArrow=none;dashed=1;html=1;dashPattern=1 3;strokeWidth=2;rounded=0;exitX=0;exitY=0.5;exitDx=0;exitDy=0;entryX=1;entryY=0.75;entryDx=0;entryDy=0;" parent="1" source="IxyZKsqGRVOInoOaAUH6-2" target="IxyZKsqGRVOInoOaAUH6-4" edge="1">
          <mxGeometry width="50" height="50" relative="1" as="geometry">
            <mxPoint x="390" y="340" as="sourcePoint" />
            <mxPoint x="440" y="290" as="targetPoint" />
          </mxGeometry>
        </mxCell>
        <mxCell id="IxyZKsqGRVOInoOaAUH6-8" value="right" style="text;html=1;align=center;verticalAlign=middle;whiteSpace=wrap;rounded=0;" parent="1" vertex="1">
          <mxGeometry x="210" y="270" width="60" height="30" as="geometry" />
        </mxCell>
        <mxCell id="RhkHFqrjHTu2ExL1VQ-C-1" value="" style="endArrow=classic;startArrow=classic;html=1;rounded=0;" edge="1" parent="1">
          <mxGeometry width="50" height="50" relative="1" as="geometry">
            <mxPoint x="140" y="20" as="sourcePoint" />
            <mxPoint x="280" y="20" as="targetPoint" />
          </mxGeometry>
        </mxCell>
        <mxCell id="RhkHFqrjHTu2ExL1VQ-C-2" value="320 px" style="text;html=1;align=center;verticalAlign=middle;whiteSpace=wrap;rounded=0;" vertex="1" parent="1">
          <mxGeometry x="182" y="-20" width="60" height="30" as="geometry" />
        </mxCell>
        <mxCell id="RhkHFqrjHTu2ExL1VQ-C-3" value="" style="endArrow=classic;startArrow=classic;html=1;rounded=0;" edge="1" parent="1">
          <mxGeometry width="50" height="50" relative="1" as="geometry">
            <mxPoint x="730" y="130" as="sourcePoint" />
            <mxPoint x="730" y="40" as="targetPoint" />
          </mxGeometry>
        </mxCell>
        <mxCell id="RhkHFqrjHTu2ExL1VQ-C-4" value="256 px" style="text;html=1;align=center;verticalAlign=middle;whiteSpace=wrap;rounded=0;" vertex="1" parent="1">
          <mxGeometry x="740" y="70" width="60" height="30" as="geometry" />
        </mxCell>
        <mxCell id="RhkHFqrjHTu2ExL1VQ-C-5" value="" style="rounded=0;whiteSpace=wrap;html=1;" vertex="1" parent="1">
          <mxGeometry x="280" y="680" width="440" height="230" as="geometry" />
        </mxCell>
        <mxCell id="RhkHFqrjHTu2ExL1VQ-C-6" value="Text" style="text;html=1;align=center;verticalAlign=middle;whiteSpace=wrap;rounded=0;" vertex="1" parent="1">
          <mxGeometry x="290" y="700" width="60" height="30" as="geometry" />
        </mxCell>
        <mxCell id="RhkHFqrjHTu2ExL1VQ-C-7" value="Text" style="text;html=1;align=center;verticalAlign=middle;whiteSpace=wrap;rounded=0;" vertex="1" parent="1">
          <mxGeometry x="392" y="690" width="60" height="30" as="geometry" />
        </mxCell>
        <mxCell id="RhkHFqrjHTu2ExL1VQ-C-8" value="Text" style="text;html=1;align=center;verticalAlign=middle;whiteSpace=wrap;rounded=0;" vertex="1" parent="1">
          <mxGeometry x="290" y="800" width="60" height="30" as="geometry" />
        </mxCell>
        <mxCell id="RhkHFqrjHTu2ExL1VQ-C-10" value="" style="rounded=0;whiteSpace=wrap;html=1;" vertex="1" parent="1">
          <mxGeometry x="490" y="685" width="120" height="60" as="geometry" />
        </mxCell>
        <mxCell id="RhkHFqrjHTu2ExL1VQ-C-11" value="Text" style="text;html=1;align=center;verticalAlign=middle;whiteSpace=wrap;rounded=0;" vertex="1" parent="1">
          <mxGeometry x="520" y="700" width="60" height="30" as="geometry" />
        </mxCell>
        <mxCell id="RhkHFqrjHTu2ExL1VQ-C-12" value="" style="rounded=0;whiteSpace=wrap;html=1;" vertex="1" parent="1">
          <mxGeometry x="392" y="780" width="178" height="100" as="geometry" />
        </mxCell>
        <mxCell id="RhkHFqrjHTu2ExL1VQ-C-13" value="Text" style="text;html=1;align=center;verticalAlign=middle;whiteSpace=wrap;rounded=0;" vertex="1" parent="1">
          <mxGeometry x="410" y="785" width="60" height="30" as="geometry" />
        </mxCell>
        <mxCell id="RhkHFqrjHTu2ExL1VQ-C-14" value="" style="rounded=1;whiteSpace=wrap;html=1;" vertex="1" parent="1">
          <mxGeometry x="470" y="780" width="70" height="40" as="geometry" />
        </mxCell>
        <mxCell id="RhkHFqrjHTu2ExL1VQ-C-16" value="" style="rounded=1;whiteSpace=wrap;html=1;" vertex="1" parent="1">
          <mxGeometry x="470" y="830" width="70" height="40" as="geometry" />
        </mxCell>
        <mxCell id="RhkHFqrjHTu2ExL1VQ-C-17" value="Text" style="text;html=1;align=center;verticalAlign=middle;whiteSpace=wrap;rounded=0;" vertex="1" parent="1">
          <mxGeometry x="475" y="785" width="60" height="30" as="geometry" />
        </mxCell>
        <mxCell id="RhkHFqrjHTu2ExL1VQ-C-18" value="Text" style="text;html=1;align=center;verticalAlign=middle;whiteSpace=wrap;rounded=0;" vertex="1" parent="1">
          <mxGeometry x="475" y="835" width="60" height="30" as="geometry" />
        </mxCell>
        <mxCell id="RhkHFqrjHTu2ExL1VQ-C-19" value="" style="rounded=1;whiteSpace=wrap;html=1;" vertex="1" parent="1">
          <mxGeometry x="-30" y="580" width="170" height="100" as="geometry" />
        </mxCell>
        <mxCell id="RhkHFqrjHTu2ExL1VQ-C-20" value="Text" style="text;html=1;align=center;verticalAlign=middle;whiteSpace=wrap;rounded=0;" vertex="1" parent="1">
          <mxGeometry x="640" y="830" width="60" height="30" as="geometry" />
        </mxCell>
        <mxCell id="RhkHFqrjHTu2ExL1VQ-C-23" value="" style="whiteSpace=wrap;html=1;aspect=fixed;" vertex="1" parent="1">
          <mxGeometry x="240" y="1030" width="270" height="270" as="geometry" />
        </mxCell>
        <mxCell id="RhkHFqrjHTu2ExL1VQ-C-24" value="" style="shape=process;whiteSpace=wrap;html=1;backgroundOutline=1;" vertex="1" parent="1">
          <mxGeometry x="460" y="1030" width="50" height="40" as="geometry" />
        </mxCell>
        <mxCell id="RhkHFqrjHTu2ExL1VQ-C-25" value="" style="rounded=0;whiteSpace=wrap;html=1;" vertex="1" parent="1">
          <mxGeometry x="530" y="1100" width="70" height="100" as="geometry" />
        </mxCell>
        <mxCell id="RhkHFqrjHTu2ExL1VQ-C-26" value="" style="rounded=0;whiteSpace=wrap;html=1;" vertex="1" parent="1">
          <mxGeometry x="298" y="1470" width="402" height="240" as="geometry" />
        </mxCell>
        <mxCell id="RhkHFqrjHTu2ExL1VQ-C-27" value="Text" style="text;html=1;align=center;verticalAlign=middle;whiteSpace=wrap;rounded=0;" vertex="1" parent="1">
          <mxGeometry x="298" y="1500" width="60" height="30" as="geometry" />
        </mxCell>
        <mxCell id="RhkHFqrjHTu2ExL1VQ-C-28" value="" style="rounded=1;whiteSpace=wrap;html=1;" vertex="1" parent="1">
          <mxGeometry x="540" y="1500" width="120" height="60" as="geometry" />
        </mxCell>
        <mxCell id="RhkHFqrjHTu2ExL1VQ-C-29" value="" style="rounded=0;whiteSpace=wrap;html=1;" vertex="1" parent="1">
          <mxGeometry x="370" y="1600" width="120" height="60" as="geometry" />
        </mxCell>
        <mxCell id="RhkHFqrjHTu2ExL1VQ-C-30" value="" style="rounded=0;whiteSpace=wrap;html=1;" vertex="1" parent="1">
          <mxGeometry x="560" y="1610" width="120" height="60" as="geometry" />
        </mxCell>
        <mxCell id="RhkHFqrjHTu2ExL1VQ-C-31" value="Text" style="text;html=1;align=center;verticalAlign=middle;whiteSpace=wrap;rounded=0;" vertex="1" parent="1">
          <mxGeometry x="384" y="1620" width="60" height="20" as="geometry" />
        </mxCell>
        <mxCell id="RhkHFqrjHTu2ExL1VQ-C-32" value="Text" style="text;html=1;align=center;verticalAlign=middle;whiteSpace=wrap;rounded=0;" vertex="1" parent="1">
          <mxGeometry x="570" y="1515" width="60" height="30" as="geometry" />
        </mxCell>
        <mxCell id="RhkHFqrjHTu2ExL1VQ-C-33" value="Text" style="text;html=1;align=center;verticalAlign=middle;whiteSpace=wrap;rounded=0;" vertex="1" parent="1">
          <mxGeometry x="430" y="1490" width="60" height="30" as="geometry" />
        </mxCell>
        <mxCell id="RhkHFqrjHTu2ExL1VQ-C-34" value="Text" style="text;html=1;align=center;verticalAlign=middle;whiteSpace=wrap;rounded=0;" vertex="1" parent="1">
          <mxGeometry x="590" y="1625" width="60" height="30" as="geometry" />
        </mxCell>
        <mxCell id="RhkHFqrjHTu2ExL1VQ-C-35" value="" style="endArrow=none;html=1;rounded=0;" edge="1" parent="1">
          <mxGeometry width="50" height="50" relative="1" as="geometry">
            <mxPoint x="360" y="1770" as="sourcePoint" />
            <mxPoint x="360" y="1350" as="targetPoint" />
          </mxGeometry>
        </mxCell>
        <mxCell id="RhkHFqrjHTu2ExL1VQ-C-36" value="" style="rounded=0;whiteSpace=wrap;html=1;" vertex="1" parent="1">
          <mxGeometry x="384" y="1520" width="120" height="60" as="geometry" />
        </mxCell>
        <mxCell id="RhkHFqrjHTu2ExL1VQ-C-37" value="" style="rounded=0;whiteSpace=wrap;html=1;" vertex="1" parent="1">
          <mxGeometry x="370" y="1660" width="120" height="40" as="geometry" />
        </mxCell>
        <mxCell id="RhkHFqrjHTu2ExL1VQ-C-38" value="" style="rounded=0;whiteSpace=wrap;html=1;" vertex="1" parent="1">
          <mxGeometry x="312" y="1860" width="80" height="60" as="geometry" />
        </mxCell>
        <mxCell id="RhkHFqrjHTu2ExL1VQ-C-41" value="" style="rounded=0;whiteSpace=wrap;html=1;" vertex="1" parent="1">
          <mxGeometry x="30" y="1945" width="100" height="60" as="geometry" />
        </mxCell>
        <mxCell id="RhkHFqrjHTu2ExL1VQ-C-42" value="Text" style="text;html=1;align=center;verticalAlign=middle;whiteSpace=wrap;rounded=0;" vertex="1" parent="1">
          <mxGeometry x="650" y="1900" width="60" height="30" as="geometry" />
        </mxCell>
        <mxCell id="RhkHFqrjHTu2ExL1VQ-C-43" value="Text" style="text;html=1;align=center;verticalAlign=middle;whiteSpace=wrap;rounded=0;" vertex="1" parent="1">
          <mxGeometry x="60" y="1960" width="60" height="30" as="geometry" />
        </mxCell>
        <mxCell id="RhkHFqrjHTu2ExL1VQ-C-44" value="" style="rounded=0;whiteSpace=wrap;html=1;" vertex="1" parent="1">
          <mxGeometry x="200" y="1885" width="40" height="60" as="geometry" />
        </mxCell>
        <mxCell id="RhkHFqrjHTu2ExL1VQ-C-45" value="" style="rounded=0;whiteSpace=wrap;html=1;" vertex="1" parent="1">
          <mxGeometry x="290" y="1827.5" width="250" height="150" as="geometry" />
        </mxCell>
        <mxCell id="RhkHFqrjHTu2ExL1VQ-C-47" value="" style="rounded=1;whiteSpace=wrap;html=1;" vertex="1" parent="1">
          <mxGeometry x="160" y="2180" width="360" height="550" as="geometry" />
        </mxCell>
        <mxCell id="RhkHFqrjHTu2ExL1VQ-C-48" value="" style="rounded=0;whiteSpace=wrap;html=1;" vertex="1" parent="1">
          <mxGeometry x="160" y="2370" width="360" height="210" as="geometry" />
        </mxCell>
        <mxCell id="RhkHFqrjHTu2ExL1VQ-C-49" value="" style="rounded=0;whiteSpace=wrap;html=1;" vertex="1" parent="1">
          <mxGeometry x="160" y="2370" width="360" height="60" as="geometry" />
        </mxCell>
        <mxCell id="RhkHFqrjHTu2ExL1VQ-C-50" value="Text" style="text;html=1;align=center;verticalAlign=middle;whiteSpace=wrap;rounded=0;" vertex="1" parent="1">
          <mxGeometry x="170" y="2190" width="60" height="30" as="geometry" />
        </mxCell>
        <mxCell id="RhkHFqrjHTu2ExL1VQ-C-51" value="" style="rounded=1;whiteSpace=wrap;html=1;" vertex="1" parent="1">
          <mxGeometry x="262" y="2190" width="50" height="30" as="geometry" />
        </mxCell>
        <mxCell id="RhkHFqrjHTu2ExL1VQ-C-52" value="" style="rounded=0;whiteSpace=wrap;html=1;" vertex="1" parent="1">
          <mxGeometry x="160" y="2240" width="50" height="70" as="geometry" />
        </mxCell>
        <mxCell id="RhkHFqrjHTu2ExL1VQ-C-53" value="" style="rounded=0;whiteSpace=wrap;html=1;" vertex="1" parent="1">
          <mxGeometry x="460" y="2370" width="60" height="60" as="geometry" />
        </mxCell>
        <mxCell id="RhkHFqrjHTu2ExL1VQ-C-54" value="Text" style="text;html=1;align=center;verticalAlign=middle;whiteSpace=wrap;rounded=0;" vertex="1" parent="1">
          <mxGeometry x="155" y="2240" width="60" height="30" as="geometry" />
        </mxCell>
        <mxCell id="RhkHFqrjHTu2ExL1VQ-C-55" value="" style="rounded=0;whiteSpace=wrap;html=1;" vertex="1" parent="1">
          <mxGeometry x="370" y="2190" width="60" height="30" as="geometry" />
        </mxCell>
        <mxCell id="RhkHFqrjHTu2ExL1VQ-C-56" value="Text" style="text;html=1;align=center;verticalAlign=middle;whiteSpace=wrap;rounded=0;" vertex="1" parent="1">
          <mxGeometry x="460" y="2380" width="60" height="30" as="geometry" />
        </mxCell>
        <mxCell id="RhkHFqrjHTu2ExL1VQ-C-57" value="Text" style="text;html=1;align=center;verticalAlign=middle;whiteSpace=wrap;rounded=0;" vertex="1" parent="1">
          <mxGeometry x="370" y="2190" width="60" height="30" as="geometry" />
        </mxCell>
        <mxCell id="RhkHFqrjHTu2ExL1VQ-C-59" value="Text" style="text;html=1;align=center;verticalAlign=middle;whiteSpace=wrap;rounded=0;" vertex="1" parent="1">
          <mxGeometry x="257" y="2190" width="60" height="30" as="geometry" />
        </mxCell>
      </root>
    </mxGraphModel>
  </diagram>
</mxfile>
